<svg width="44" height="61" viewBox="0 0 44 61" fill="none" xmlns="http://www.w3.org/2000/svg">
<g clip-path="url(#clip0_639_507)">
<mask id="mask0_639_507" style="mask-type:luminance" maskUnits="userSpaceOnUse" x="0" y="0" width="44" height="61">
<path d="M44 0H0V61H44V0Z" fill="white"/>
</mask>
<g mask="url(#mask0_639_507)">
<path opacity="0.4" d="M24.891 9.25296C23.5286 7.94993 22.5064 6.33271 21.914 4.54296C21.614 3.63096 21.614 1.84296 20.807 1.25296C20.5139 1.09565 20.1909 1.00212 19.8591 0.978506C19.5274 0.954895 19.1944 1.00174 18.882 1.11596C17.529 1.43996 16.216 1.98796 16.163 3.56896C16.08 6.06896 17.77 8.33696 18.263 10.715C18.3096 10.9148 18.3101 11.1226 18.2645 11.3227C18.2189 11.5228 18.1283 11.7098 17.9997 11.8697C17.871 12.0296 17.7077 12.158 17.522 12.2454C17.3363 12.3328 17.1332 12.3767 16.928 12.374C16.295 12.1783 15.6932 11.8931 15.141 11.527V11.202C17.216 10.584 16.613 8.53496 15.985 6.97896C15.8035 6.33689 15.444 5.7593 14.948 5.31296C13.43 4.23996 12.148 6.36096 10.755 6.05896C10.233 5.94596 9.81499 5.38696 9.45499 5.02996C8.7375 4.14913 7.85415 3.41765 6.85499 2.87696C5.48899 2.36096 3.43999 3.94496 3.34499 5.35496C3.40641 5.96641 3.67285 6.53912 4.10099 6.97996C2.61061 7.14487 1.21451 7.79079 0.123993 8.81996C-0.688007 9.77796 -0.0650069 11.775 1.01699 12.285C1.78999 12.649 2.44699 12.075 3.12599 11.773C3.89517 11.4321 4.72144 11.2384 5.56199 11.202C4.42579 12.6447 3.59217 14.3017 3.11099 16.074C2.90199 16.907 2.98099 17.874 2.71099 18.674C2.34899 19.3546 1.9344 20.0059 1.47099 20.622C0.69171 22.1202 0.462408 23.8442 0.822993 25.494C1.03603 26.8091 1.48527 28.0748 2.14899 29.23C2.66599 30.03 3.62199 30.636 3.69599 31.666C3.64652 32.3402 3.4772 33.0002 3.19599 33.615C2.83245 34.777 2.59574 35.975 2.48999 37.188C2.02529 42.7195 3.77343 48.2096 7.35099 52.454C9.01499 54.2622 10.866 55.889 12.873 57.307C15.407 59.24 18.545 61.735 21.968 60.771C23.475 60.2478 24.8194 59.3402 25.868 58.138C28.351 55.629 30.079 52.438 32.276 49.693C33.336 48.366 34.628 47.265 35.701 45.958C36.8973 44.4524 37.8194 42.7481 38.425 40.923C39.4269 38.1706 39.7189 35.21 39.274 32.315C39.074 31.188 38.181 30.185 38.1 29.067C38.1745 28.3527 38.3114 27.6464 38.509 26.956C38.5756 25.8745 38.5849 24.7904 38.537 23.708C39.2716 23.9602 40.0694 23.9602 40.804 23.708C41.794 23.183 42.496 21.295 41.827 20.319C41.136 19.311 39.015 18.838 37.887 18.519C38.64 18.264 39.699 18.336 40.24 17.683C41.363 16.327 40.279 13.063 38.699 12.495C37.119 11.927 34.92 13.108 33.34 13.279C32.9487 13.3166 32.5573 13.2094 32.2397 12.9778C31.9222 12.7461 31.7006 12.406 31.617 12.022C31.554 11.28 32.293 10.347 32.66 9.74796C33.4459 8.37777 34.3415 7.0735 35.338 5.84796C35.901 5.19096 36.801 4.73696 37.096 3.89096C37.567 2.53596 36.374 -0.188041 34.636 0.278959C32.93 0.736959 31.725 2.53096 30.576 3.73096C30.568 2.74596 30.608 0.995959 29.991 0.181959C29.173 -0.898041 26.671 -0.453041 26.057 0.661959C25.711 1.29096 26.034 1.95196 26.137 2.59396C26.2025 3.18724 26.2203 3.78483 26.19 4.38096C26.1005 6.07774 25.6587 7.73714 24.891 9.25296ZM28.79 0.644959C28.3203 1.00956 27.7575 1.23479 27.166 1.29496C27.542 0.759959 28.166 0.725959 28.79 0.644959ZM29.277 1.29496C29.369 3.43396 29.321 5.49496 29.277 7.62896C30.952 5.76296 31.884 3.05696 34.312 1.94496C34.522 2.51196 35.194 3.28496 35.12 3.89396C35.038 4.56696 34.176 5.16496 33.784 5.68096C32.6377 7.16582 31.6134 8.74096 30.721 10.391C30.2537 11.0505 30.0624 11.8665 30.188 12.665C30.448 13.396 31.222 13.883 31.714 14.451L31.552 14.613C31.206 14.369 30.8803 14.0974 30.578 13.801L31.065 14.775C30.465 14.431 30.011 13.886 29.441 13.483C28.3885 12.7354 27.1545 12.2843 25.868 12.177V12.502C26.787 12.5001 27.6905 12.7391 28.4884 13.1953C29.2862 13.6515 29.9505 14.3089 30.415 15.102C30.0198 14.915 29.6396 14.6977 29.278 14.452C29.5464 14.739 29.7659 15.068 29.928 15.426C29.379 14.9782 28.7792 14.5966 28.141 14.289C28.6834 14.6561 29.175 15.0932 29.603 15.589C28.785 15.618 28.203 14.97 27.492 14.615C28.0653 15.008 28.5609 15.5037 28.954 16.077L27.98 15.59L28.142 15.915C27.2351 15.419 26.244 15.0958 25.219 14.962C22.957 14.906 20.969 16.814 20.306 18.839C19.912 20.039 20.319 21.247 20.041 22.412C19.769 23.551 18.619 24.259 18.398 25.498C18.073 25.361 17.217 24.666 16.877 24.875C16.537 25.084 17.119 25.651 17.267 25.788C18.0493 26.4348 19.0105 26.8273 20.022 26.913C21.6043 26.9953 23.1903 26.8515 24.732 26.486C25.395 26.374 26.195 26.03 26.843 26.342C28.123 26.959 28.529 28.85 27.005 29.442C26.065 29.804 24.605 29.4 23.595 29.4C24.4943 29.6435 25.4247 29.753 26.356 29.725C25.6204 30.2066 24.7895 30.5235 23.92 30.654C22.8174 30.9313 21.843 31.5778 21.159 32.486C21.9208 31.7449 22.8789 31.2376 23.92 31.024C23.608 31.784 23.328 32.572 22.946 33.298C23.618 32.627 23.704 31.559 24.446 30.945C25.0408 30.5977 25.6868 30.3466 26.36 30.201C27.0404 29.8832 27.6901 29.5036 28.301 29.067C28.372 30.5028 28.1565 31.9383 27.667 33.29C26.721 35.39 23.701 37.612 21.318 37.496C20.029 37.433 19.061 36.609 17.907 36.154C17.2808 35.9393 16.6187 35.8493 15.958 35.889C17.1935 36.1861 18.392 36.6204 19.531 37.184C20.0196 37.3565 20.4636 37.6356 20.831 38.001C19.321 38.201 17.276 38.74 16.931 40.437C18.303 38.284 21.059 38.305 23.265 37.437C24.819 36.827 25.838 35.685 27.165 34.751C26.498 37.063 24.576 39.034 23.165 40.923C22.619 41.654 22.12 42.795 21.301 43.247C19.413 44.29 16.101 42.527 15.146 45.308C15.4065 44.8881 15.7634 44.5364 16.187 44.2821C16.6107 44.0278 17.0889 43.8783 17.582 43.846L16.608 45.63C16.9645 44.9849 17.4647 44.4306 18.07 44.01C19.1256 43.714 20.2245 43.6026 21.318 43.681C20.605 46.294 18.938 48.181 17.418 50.34C18.5001 49.2231 19.4286 47.967 20.179 46.605C20.2518 47.3664 20.1991 48.1346 20.023 48.879C19.923 51.073 20.04 53.792 21.966 55.213C21.419 54.1303 21.0066 52.9848 20.738 51.802C20.6323 50.449 20.6627 49.0888 20.829 47.742C21.629 48.651 21.759 50.179 22.129 51.315C22.151 49.815 21.248 48.522 21.178 47.092C21.078 44.972 23.091 42.486 24.309 40.92C24.7431 40.2051 25.3297 39.5949 26.027 39.133C26.196 40.386 26.527 41.603 26.649 42.868C26.813 44.59 26.503 46.168 27.976 47.415C26.645 45.438 27.066 43.471 26.793 41.243C26.686 40.369 26.125 39.178 26.355 38.32C26.6112 37.6936 26.9309 37.0952 27.309 36.534C27.8883 35.4586 28.3311 34.3151 28.627 33.13C30.198 34.054 30.695 36.35 31.027 38.002C31.2037 38.582 31.3026 39.1829 31.321 39.789C31.247 40.845 30.758 41.802 30.735 42.875H31.06C31.0284 41.9645 31.2536 41.0635 31.71 40.275C32.1243 40.9745 32.6769 41.5822 33.334 42.061C32.3591 40.7064 31.6937 39.1541 31.385 37.514C31.9727 37.8219 32.5185 38.204 33.009 38.651C32.541 37.992 31.847 37.533 31.409 36.858C30.955 36.158 30.852 35.3 30.394 34.591C29.8272 33.9642 29.3631 33.2517 29.019 32.48C28.9489 31.8843 28.9753 31.2812 29.097 30.694C29.156 29.834 29.112 28.958 29.112 28.094C30.82 29.326 30.572 31.822 32.685 32.641C31.998 32.2416 31.4787 31.6073 31.223 30.855L32.523 31.505C32.0291 31.1615 31.57 30.7706 31.152 30.338C30.739 29.81 30.609 29.118 30.186 28.582C29.448 27.648 28.793 27.224 28.625 25.982C32.047 26.252 35.654 27.806 37.264 31.017C37.8584 32.0487 38.0963 33.2475 37.941 34.428C37.7157 35.32 37.233 36.1261 36.553 36.746C35.705 37.37 34.821 37.255 34.309 38.326C34.8063 37.7314 35.4957 37.3292 36.258 37.189C35.834 38.189 34.988 38.946 34.558 39.95C34.3417 40.5756 34.2569 41.2391 34.309 41.899H34.634C34.641 39.355 36.65 37.351 37.882 35.24C38.228 36.126 37.811 37.571 37.612 38.488C36.946 41.565 35.405 45.167 32.685 46.982C31.01 48.1 28.851 48.022 27.813 50.019C28.9592 48.8205 30.4246 47.9752 32.036 47.583C31.3813 48.5964 30.6702 49.5723 29.906 50.506C29.4507 51.2268 28.9405 51.9115 28.38 52.554C27.699 53.226 26.743 53.593 26.028 54.254C24.048 56.088 22.443 58.016 19.528 57.654C20.358 58.431 21.528 58.075 22.451 57.609C24.541 56.557 25.773 54.409 27.811 53.269C27.3978 54.0167 26.9147 54.7235 26.368 55.38C25.093 57.051 23.506 59.113 21.314 59.527C17.937 60.164 14.62 57.027 12.219 55.088C11.2151 54.3638 10.2898 53.5367 9.45799 52.62C11.4369 52.9162 13.2935 53.7599 14.818 55.056C14.2619 54.4123 13.605 53.8632 12.873 53.43C13.3462 53.2638 13.8618 53.2638 14.335 53.43C13.7146 53.1857 13.0527 53.0638 12.386 53.071C11.2562 52.9116 10.1595 52.5712 9.13799 52.063C8.30638 51.496 7.62099 50.74 7.13799 49.857C6.46238 48.9675 5.92312 47.9824 5.53799 46.934C5.01499 45.112 5.86699 43.372 6.54699 41.734C6.68679 42.2689 6.79762 42.811 6.87899 43.358C7.16707 44.2226 7.66371 45.0029 8.32499 45.63C7.39599 44.206 6.55799 42.481 7.29199 40.758C7.96899 39.167 9.55499 38.133 9.13699 36.211C11.459 37.851 12.701 41.364 11.319 44.011C10.419 45.741 8.85699 46.776 8.81199 48.883C9.39999 47.325 9.85699 45.883 11.248 44.823C11.048 46.381 10.187 49.681 11.898 50.67C11.847 49.8513 11.7384 49.0373 11.573 48.234C11.9785 48.5264 12.3588 48.8522 12.71 49.208C12.295 48.7161 11.9495 48.1697 11.683 47.584C11.406 46.578 11.95 45.141 12.222 44.173C13.07 45.079 13.333 46.325 14.171 47.259C13.4304 46.0984 12.8527 44.8417 12.454 43.524C12.4399 42.7064 12.5139 41.8896 12.675 41.088C12.677 40.4226 12.5588 39.7623 12.326 39.139C11.744 37.379 10.326 36.225 9.29799 34.754C10.5331 34.6901 11.7618 34.9695 12.848 35.561C13.1612 35.8559 13.4411 36.1842 13.683 36.54C13.4914 36.0706 13.181 35.6592 12.7823 35.3461C12.3836 35.033 11.9104 34.8289 11.409 34.754C11.7552 34.556 12.1472 34.4519 12.546 34.4519C12.9448 34.4519 13.3367 34.556 13.683 34.754C12.197 33.344 10.288 35.367 8.71999 34.169C8.23542 33.743 7.84276 33.2228 7.56599 32.64C7.28862 32.2126 7.11474 31.7264 7.05815 31.22C7.00156 30.7136 7.06382 30.2011 7.23999 29.723C7.62299 28.974 9.22399 27.762 10.112 27.886C10.6635 28.0185 11.1647 28.3079 11.5551 28.7193C11.9456 29.1306 12.2085 29.6463 12.312 30.204C12.3752 30.8006 12.3458 31.4033 12.225 31.991C12.5881 31.1715 12.6456 30.2491 12.387 29.391C14.781 30.154 15.797 32.049 15.798 34.426C16.0218 34.1263 16.1589 33.7709 16.1942 33.3985C16.2294 33.0262 16.1616 32.6513 15.998 32.315C15.378 30.8007 14.2029 29.5805 12.713 28.904C13.3248 28.6467 13.9826 28.5165 14.6463 28.5211C15.31 28.5258 15.9658 28.6652 16.574 28.931C16.974 29.184 17.129 29.691 17.423 30.041C16.691 27.582 14.101 28.756 12.223 28.372C11.6949 28.203 11.2002 27.9434 10.761 27.605V27.28C13.231 25.998 12.93 23.454 13.267 21.108C13.5234 19.1254 14.3561 17.2616 15.662 15.748C16.781 14.496 19.518 13.181 19.674 11.363C19.6114 10.3923 19.33 9.44845 18.851 8.60196C18.0682 6.96767 17.5835 5.20667 17.42 3.40196C18.4193 3.47744 19.4221 3.31037 20.343 2.91496C20.6586 5.22516 21.5817 7.41021 23.018 9.24696C23.482 9.80396 24.393 10.72 25.218 10.56C26.043 10.4 26.356 9.25996 26.636 8.59996C27.5234 6.44167 27.7666 4.0725 27.336 1.77896C27.901 1.89996 27.875 2.37896 27.95 2.91596C28.0429 4.05527 27.9972 5.20165 27.814 6.32996C28.364 4.81645 28.4207 3.16768 27.976 1.61996C28.876 1.88396 28.87 3.61996 28.626 4.38096C29.258 3.54696 28.82 2.39596 28.626 1.45796L29.276 1.29596M34.96 1.45796C35.2782 1.70733 35.5324 2.02883 35.7018 2.3959C35.8712 2.76296 35.9507 3.16505 35.934 3.56896C35.368 3.05096 34.686 2.25596 34.96 1.45796ZM20.018 2.10796C19.7 2.46775 19.2896 2.73363 18.8313 2.87677C18.373 3.01991 17.8842 3.03485 17.418 2.91996C18.1875 2.40281 19.0909 2.12068 20.018 2.10796ZM29.601 8.76596C30.419 8.27296 30.755 7.10296 31.301 6.32996C32.188 5.06496 33.395 4.12296 34.315 2.91896C33.415 2.83396 32.824 3.55696 32.279 4.21896C31.1681 5.59503 30.2657 7.12711 29.601 8.76596ZM6.37599 3.72996C6.01546 4.35043 5.43634 4.814 4.75199 5.02996C5.13061 4.42533 5.70314 3.96703 6.37599 3.72996ZM9.94899 7.62996C9.01699 7.36796 8.44899 6.55096 7.67499 6.00596C8.23499 6.69196 9.27499 7.34196 9.13699 8.27996L7.35099 6.97996C7.84099 7.53296 8.43499 7.87096 8.65099 8.60396L7.35099 7.95396C7.65954 8.30443 7.93161 8.68539 8.16299 9.09096L6.53899 8.76596C6.96542 8.96317 7.35108 9.2386 7.67599 9.57796H6.21399C6.52968 9.67644 6.85743 9.73095 7.18799 9.73996V10.065C5.36394 10.1316 3.55887 10.4596 1.82799 11.039L1.17799 9.41496C2.12898 8.79838 3.17009 8.33348 4.26399 8.03696C5.06399 7.86696 5.89299 7.93696 6.69999 7.78996C5.92298 7.16438 5.21558 6.45697 4.58999 5.67996C5.3413 5.34579 6.00751 4.84638 6.53899 4.21896C8.00424 4.9716 9.19679 6.16449 9.94899 7.62996ZM18.232 4.21896C18.2545 4.49497 18.3088 4.76745 18.394 5.03096C18.62 4.63996 18.545 4.54096 18.232 4.21896ZM18.557 5.35596C18.749 7.70496 20.402 9.62696 20.506 12.015H20.831C20.6341 9.68711 19.9713 7.42259 18.882 5.35596H18.557ZM15.309 9.90296C14.8297 9.44224 14.452 8.88637 14.2002 8.27104C13.9484 7.65572 13.8281 6.99454 13.847 6.32996C15.047 6.70396 15.615 8.78796 15.309 9.90296ZM13.36 6.49196C13.365 7.11396 13.711 8.02996 13.488 8.60096C13.08 9.64796 11.588 10.273 10.924 11.201C11.828 10.3304 12.871 9.61694 14.01 9.08996C13.798 9.76896 13.26 10.011 12.71 10.428C12.0272 10.9143 11.4243 11.504 10.923 12.176C11.788 11.569 13.576 9.44096 14.658 10.389C12.016 11.624 9.20099 14.102 9.13599 17.21C7.94299 16.478 8.92199 14.888 9.46099 13.962C9.03721 14.3542 8.70202 14.8324 8.47783 15.3646C8.25365 15.8968 8.14563 16.4707 8.16099 17.048H7.67599C7.69452 16.4496 7.74862 15.8529 7.83799 15.261C7.50799 15.8 7.51299 16.481 7.18399 16.984C6.65299 17.797 4.84099 18.412 3.93999 18.671C4.09799 14.995 6.25999 11.742 8.81199 9.25396C10.0324 7.91726 11.6104 6.9584 13.359 6.49096M10.923 8.60196C11.404 8.61496 11.501 8.53796 11.735 8.11496C11.415 8.17546 11.1271 8.34815 10.923 8.60196ZM5.56299 15.586C6.45099 14.603 6.83599 13.211 7.72299 12.175C8.54599 11.213 10.075 10.318 10.435 9.08896C8.18899 9.95896 5.91699 13.223 5.56299 15.589M1.01699 10.065L1.34199 11.039C1.20267 10.9228 1.09846 10.7702 1.04106 10.5982C0.983651 10.4261 0.975318 10.2415 1.01699 10.065ZM13.847 11.53C14.6436 12.4517 15.6445 13.1746 16.77 13.641C16.3433 13.7484 15.8967 13.7484 15.47 13.641L16.282 14.128C15.7612 14.3388 15.1788 14.3388 14.658 14.128L15.632 14.778C15.1387 14.8389 14.638 14.7834 14.17 14.616C14.5214 14.8529 14.8477 15.125 15.144 15.428C13.8236 14.9949 12.6834 14.1374 11.901 12.989L12.551 13.314L12.226 12.664L13.2 12.989C13.0014 12.7418 12.8375 12.4686 12.713 12.177C13.0669 11.9191 13.4482 11.7011 13.85 11.527M39.35 17.049C38.25 16.184 38.213 14.942 38.213 13.638C39.396 14.008 39.613 15.993 39.35 17.049ZM37.721 13.801C37.7414 14.5689 37.8505 15.332 38.046 16.075C36.5805 16.1632 35.1713 16.6706 33.986 17.537C35.1 17.044 37.554 16.061 38.533 17.05C36.64 17.3178 34.7861 17.812 33.011 18.522C32.0416 18.8036 31.1773 19.3659 30.527 20.138C29.578 21.529 30.306 23.729 28.865 24.91C28.275 25.393 26.932 25.23 26.19 25.333C23.7874 25.8265 21.3288 25.9903 18.882 25.82C19.02 24.476 19.918 23.649 20.831 22.734C21.24 22.324 22.023 21.758 22.008 21.11C21.993 20.462 21.187 19.83 20.831 19.323C21.3074 19.44 21.7516 19.6621 22.131 19.973L20.994 18.673C21.5139 18.8074 22.0079 19.0271 22.456 19.323C22.076 18.852 21.519 18.601 21.319 18.023C21.9309 18.1922 22.5284 18.4095 23.106 18.673C22.552 18.3885 22.0561 18.0029 21.644 17.536C22.2519 17.7173 22.8486 17.9344 23.431 18.186C22.937 17.808 22.282 17.547 22.294 16.886L24.08 17.86L22.618 16.56C24.238 16.36 25.618 17.997 27.328 17.611C28.587 17.327 29.614 16.305 30.739 15.711C32.8849 14.5348 35.2772 13.8795 37.723 13.798M11.575 14.285C12.084 14.785 13.232 15.436 13.483 16.101C13.648 16.54 13.283 17.001 13.097 17.37C12.7146 18.1461 12.422 18.9634 12.225 19.806C11.7578 19.5355 11.3602 19.1599 11.0637 18.7088C10.7671 18.2578 10.5799 17.7439 10.5168 17.2078C10.4537 16.6717 10.5165 16.1283 10.7002 15.6207C10.8839 15.1132 11.1834 14.6565 11.575 14.285ZM14.175 22.892C14.3998 22.2071 14.5458 21.4989 14.61 20.781C14.8724 19.7393 15.3122 18.7505 15.91 17.858C16.4149 17.0838 17.0335 16.39 17.745 15.8C18.345 15.3 19.006 15 19.369 14.285C18.7342 14.4028 18.1308 14.6513 17.5971 15.0147C17.0635 15.3781 16.6112 15.8485 16.269 16.396C14.8512 18.261 14.1122 20.554 14.174 22.896M28.301 18.673C29.3783 17.7937 30.5183 16.9943 31.712 16.281C33.0811 15.72 34.4934 15.2708 35.935 14.938C35.177 14.7487 34.3778 14.8144 33.661 15.125C31.761 15.645 29.173 16.804 28.301 18.673ZM16.608 18.511C17.3975 17.354 18.4566 16.4064 19.694 15.75C18.348 15.382 16.832 17.355 16.608 18.511ZM10.274 20.298C10.0244 20.4789 9.80498 20.6983 9.62399 20.948C10.169 20.664 10.451 20.514 10.924 20.948C10.387 21.2635 9.93948 21.7109 9.62399 22.248C10.274 21.82 10.764 21.305 11.573 21.436C10.788 22.286 9.65499 22.608 9.13699 23.71C10.183 22.995 11.099 22.01 12.385 21.761C12.199 22.899 10.785 23.015 10.111 23.872C10.8391 23.4815 11.6 23.1556 12.385 22.898C12.049 23.915 11.063 24.112 10.598 25.009C11.0697 24.711 11.5578 24.4399 12.06 24.197C11.926 25.362 10.592 25.735 9.78599 26.471L11.572 25.659C10.772 26.766 9.60799 27.017 8.48599 27.682C7.38599 28.333 6.56599 29.275 5.23799 29.395L6.70099 27.768C5.79599 28.238 5.18599 29.32 4.10099 29.23C4.63257 28.2835 5.35074 27.4547 6.21199 26.794C5.26787 27.1883 4.47214 27.8703 3.93799 28.743H3.61599C3.51399 27.53 4.88099 26.83 5.72699 26.144C5.25785 26.2468 4.81444 26.4438 4.42359 26.7229C4.03273 27.0021 3.70254 27.3576 3.45299 27.768H3.12799C2.87899 26.235 4.86499 25.237 6.05099 24.682C4.76899 24.84 3.82799 25.93 2.80099 26.63C2.53499 25.475 3.96799 24.997 4.58799 24.194L2.47699 25.494C2.7029 24.8596 3.09652 24.2984 3.61599 23.87C3.16063 24.1036 2.72576 24.3753 2.31599 24.682C2.49899 23.497 3.59799 22.848 4.42699 22.082C3.65751 22.3849 2.98413 22.89 2.47799 23.544C1.99299 22.344 3.51499 21.63 4.26499 20.944C3.68248 21.123 3.1337 21.3974 2.64099 21.756C3.36499 20.078 4.79099 19.244 6.37599 18.468C7.00184 18.0643 7.74583 17.8842 8.48699 17.957C8.80652 18.0758 9.09901 18.2575 9.34719 18.4913C9.59536 18.725 9.79421 19.0061 9.93199 19.318C10.1029 19.6201 10.2187 19.9503 10.274 20.293M35.61 18.344C36.9773 19.4068 38.5147 20.2304 40.157 20.78C39.9943 21.3644 39.8855 21.9626 39.832 22.567C37.832 22.561 36.72 21.567 34.96 20.854C33.8588 20.4673 32.7124 20.2243 31.549 20.131C32.038 19.821 32.463 20.008 33.011 20.131L32.361 19.481L34.635 20.131C34.1196 19.8112 33.576 19.5394 33.011 19.319C33.743 18.89 34.302 19.219 34.96 19.644C34.7273 19.3837 34.4529 19.164 34.148 18.994C34.93 18.494 35.442 19.232 36.097 19.649C36.6719 19.9617 37.2692 20.2314 37.884 20.456C37.101 19.664 35.989 19.418 35.284 18.507L35.609 18.345M23.101 18.673C23.2325 18.8216 23.4003 18.9335 23.588 18.998C23.4565 18.8494 23.2887 18.7374 23.101 18.673ZM36.419 28.418L36.581 27.606C36.3974 27.8083 36.1768 27.9736 35.931 28.093C36.0649 27.5729 36.2846 27.0788 36.581 26.631C36.2201 26.9366 35.941 27.3274 35.769 27.768H35.444L34.794 27.118L35.281 25.656L34.469 26.956C33.815 25.97 35.269 24.819 34.307 23.708C34.4034 24.6556 34.2348 25.6115 33.82 26.469H33.501L33.339 26.307L33.664 25.007L33.014 26.144L32.527 25.982C32.7225 25.5063 32.8852 25.0178 33.014 24.52C32.688 24.8894 32.464 25.3375 32.364 25.82L31.552 25.658C32.0947 24.8894 32.4302 23.9939 32.526 23.058C31.981 23.943 31.933 25.292 30.74 25.494L31.39 23.87C30.819 24.432 30.585 25.096 29.766 25.332C30.1517 24.3228 30.4796 23.2925 30.748 22.246C30.797 21.834 30.783 21.064 31.162 20.795C31.67 20.435 32.946 20.895 33.501 21.016C36.269 21.636 37.717 23.459 37.33 26.306C37.218 27.128 37.198 27.97 36.425 28.417M40.972 20.946C40.9487 21.4981 40.7163 22.0207 40.322 22.408L40.647 20.946H40.972ZM23.101 21.109C22.236 22.776 20.058 23.667 19.853 25.656C20.398 25.3 20.615 24.692 21.043 24.209C21.963 23.17 23.172 22.509 23.588 21.109H23.101ZM36.101 25.494L35.289 27.281C35.856 26.836 36.358 26.239 36.101 25.494ZM6.05199 31.178C6.19436 32.2601 6.65164 33.2766 7.36699 34.101C8.14599 35.067 9.18499 35.99 8.85099 37.349C8.75331 37.9269 8.44386 38.4478 7.98299 38.81C6.74699 39.65 4.95799 39.267 4.58999 41.085C5.23999 39.79 6.30199 39.57 7.67599 39.461C6.45575 41.3508 5.5758 43.4397 5.07599 45.633C4.48578 44.5867 4.13918 43.4207 4.06199 42.222C3.57265 39.5161 3.73514 36.7325 4.53599 34.102C4.77925 33.0128 5.3013 32.0056 6.05099 31.179M17.258 50.343C16.9625 50.8351 16.795 51.3934 16.771 51.967C17.1068 51.4936 17.2779 50.923 17.258 50.343ZM14.822 55.053C14.9476 55.3947 15.111 55.7214 15.309 56.027C15.375 55.558 15.171 55.359 14.822 55.053Z" fill="#00D7FF"/>
</g>
</g>
<defs>
<clipPath id="clip0_639_507">
<rect width="44" height="61" fill="white"/>
</clipPath>
</defs>
</svg>
