<svg width="383" height="383" viewBox="0 0 383 383" fill="none" xmlns="http://www.w3.org/2000/svg">
<path d="M331 383H52C38.2209 382.96 25.0175 377.469 15.2742 367.726C5.53084 357.983 0.0395764 344.779 0 331L0 52C0.0395764 38.2209 5.53084 25.0175 15.2742 15.2742C25.0175 5.53084 38.2209 0.0395764 52 0L331 0C344.779 0.0395764 357.983 5.53084 367.726 15.2742C377.469 25.0175 382.96 38.2209 383 52V331C382.96 344.779 377.469 357.983 367.726 367.726C357.983 377.469 344.779 382.96 331 383Z" fill="#9747FF"/>
<path d="M304 92.25C290.125 87.875 274.875 86 260.25 86C235.875 86 209.625 91 191.5 104.75C173.375 91 147.125 86 122.75 86C98.375 86 72.125 91 54 104.75V287.875C54 291 57.125 294.125 60.25 294.125C61.5 294.125 62.125 293.5 63.375 293.5C80.25 285.375 104.625 279.75 122.75 279.75C147.125 279.75 173.375 284.75 191.5 298.5C208.375 287.875 239 279.75 260.25 279.75C280.875 279.75 302.125 283.5 319.625 292.875C320.875 293.5 321.5 293.5 322.75 293.5C325.875 293.5 329 290.375 329 287.25V104.75C321.5 99.125 313.375 95.375 304 92.25ZM304 261C290.25 256.625 275.25 254.75 260.25 254.75C239 254.75 208.375 262.875 191.5 273.5V129.75C208.375 119.125 239 111 260.25 111C275.25 111 290.25 112.875 304 117.25V261Z" fill="white"/>
<path d="M260.25 161C271.25 161 281.875 162.125 291.5 164.25V145.25C281.625 143.375 271 142.25 260.25 142.25C239 142.25 219.75 145.875 204 152.625V173.375C218.125 165.375 237.75 161 260.25 161Z" fill="white"/>
<path d="M204 185.875V206.625C218.125 198.625 237.75 194.25 260.25 194.25C271.25 194.25 281.875 195.375 291.5 197.5V178.5C281.625 176.625 271 175.5 260.25 175.5C239 175.5 219.75 179.25 204 185.875Z" fill="white"/>
<path d="M260.25 208.875C239 208.875 219.75 212.5 204 219.25V240C218.125 232 237.75 227.625 260.25 227.625C271.25 227.625 281.875 228.75 291.5 230.875V211.875C281.625 209.875 271 208.875 260.25 208.875Z" fill="white"/>
</svg>
