<svg width="383" height="383" viewBox="0 0 383 383" fill="none" xmlns="http://www.w3.org/2000/svg">
<path d="M331 383H52C38.2209 382.96 25.0175 377.469 15.2742 367.726C5.53084 357.983 0.0395764 344.779 0 331L0 52C0.0395764 38.2209 5.53084 25.0175 15.2742 15.2742C25.0175 5.53084 38.2209 0.0395764 52 0L331 0C344.779 0.0395764 357.983 5.53084 367.726 15.2742C377.469 25.0175 382.96 38.2209 383 52V331C382.96 344.779 377.469 357.983 367.726 367.726C357.983 377.469 344.779 382.96 331 383Z" fill="#252525"/>
<path d="M341 277.521L311.234 244.708V264.396H284.046C274.203 274.474 262.015 284.553 248.421 290.646H311.234V310.334L341 277.521Z" fill="#FBFBFB"/>
<path d="M299.985 194.083C299.985 140.644 256.625 97.5189 203.186 97.5189C172.951 97.5189 146.233 111.347 128.421 132.91C122.327 140.644 117.17 149.082 113.655 157.754C113.421 158.457 113.186 158.926 112.952 159.629C112.483 161.035 112.014 162.207 111.546 163.613C108.264 173.223 106.624 183.536 106.624 194.316C106.624 206.269 108.967 217.754 112.952 228.536L94.9042 236.27L138.03 253.38L154.905 210.255L137.561 217.755C134.748 210.255 133.342 202.286 133.342 194.317C133.342 155.879 164.749 124.705 203.19 124.705C241.63 124.705 273.037 156.112 273.037 194.553C273.037 232.993 241.63 264.4 203.19 264.4H41L53.6564 277.056L41 290.65H203.19C256.393 290.65 299.989 247.525 299.989 194.087L299.985 194.083Z" fill="#FBFBFB"/>
<path d="M105.218 151.423C105.922 151.892 106.625 152.361 107.093 152.829C110.609 144.626 115.296 136.892 120.922 129.626C120.218 129.158 119.75 128.689 119.046 128.22C114.828 124.236 112.015 118.61 112.015 112.282C112.015 100.329 121.859 90.4849 133.813 90.4849C135.688 90.4849 137.563 90.7193 139.203 91.188L130.765 108.063L149.281 101.735L174.828 93.0631L174.125 91.188L159.828 49L151.156 66.5781C145.531 64.4687 139.671 63.2968 133.812 63.2968C106.859 63.2968 85.0612 85.0942 85.0612 112.047C85.2955 128.22 93.2641 142.517 105.218 151.423L105.218 151.423Z" fill="#FBFBFB"/>
</svg>
